<svg
  xmlns="http://www.w3.org/2000/svg"
  version="1.0"
  width="100%"
  height="100%"
  viewBox="0 0 340.000000 250.000000"
>
  <g fill="#fff" transform="translate(87.85499572753906,95.00300025939941)">
    <g>
      <g>
        <rect
          fill="#fff"
          fill-opacity="0"
          stroke-width="2"
          width="60"
          height="59.99400059994001"
        />
        <svg
          width="60"
          height="59.99400059994001"
        >
          <svg
            xmlns="http://www.w3.org/2000/svg"
            version="1.1"
            viewBox="1.8799999952316284 2.3600001335144043 98.6500015258789 98.63999938964844"
            enable-background="new 0 0 103 103"
            xml:space="preserve"
          >
            <path
              fill="#fff"
              d="M1.88,101h40.59L1.88,59.01V101z M2.14,2.36l40.33,63.38L88.99,9.51L42.47,101h58.06V2.36H2.14z"
            />
          </svg>
        </svg>
      </g>
    </g>
    <g transform="translate(67,1.9730892181396484)">
      <g>
        <g>
          <g>
            <path
              xmlns="http://www.w3.org/2000/svg"
              fill="#fff"
              d="M18.77-19.29L20.33-15.5 14.92-13.26 14.92-7.96Q14.92-6.03 13.57-4.65 12.22-3.28 10.24-3.28L10.24-3.28 5.67-3.28 5.67-7.38 10.24-7.38Q10.87-7.38 10.87-7.96L10.87-7.96 10.87-11.6 6.34-9.72 4.78-13.52 10.87-16.02 10.87-23.14 5.2-23.14 5.2-27.25 10.87-27.25 10.87-32.55 14.92-32.55 14.92-27.25 19.5-27.25 19.5-23.14 14.92-23.14 14.92-17.68 18.77-19.29ZM10.04-2.29L13.68-0.42Q13.62-0.31 13.16 0.47 12.69 1.25 11.83 2.39 10.97 3.54 9.67 4.89 8.37 6.24 6.71 7.49L6.71 7.49 4.32 4.21Q5.67 3.17 6.76 2.05 7.85 0.94 8.58-0.05L8.58-0.05Q9.46-1.2 10.04-2.29L10.04-2.29ZM16.85 0.21L20.18-2.13 25.32 5.1 22 7.49 16.85 0.21ZM37.02 5.1L33.7 7.49 28.6 0.21 31.93-2.13 37.02 5.1ZM43.26-2.13L48.36 5.1 45.03 7.49 39.94 0.21 43.26-2.13ZM45.81-8.79L47.16-10.24 50.18-7.54 45.97-2.81 44.46-4.06Q44.41-4.11 43.68-4.84 42.95-5.56 42.12-7.02 41.29-8.48 40.61-10.69 39.94-12.9 39.94-15.96L39.94-15.96 39.94-22.98 32.24-22.98 32.24-22.05 32.19-21.89Q31.93-20.07 31.41-18.36 30.89-16.64 30.16-15.03L30.16-15.03 36.56-10.19 34.06-6.92 28.34-11.28Q27.35-9.46 26.34-7.98 25.32-6.5 24.49-5.41 23.66-4.32 23.09-3.67 22.52-3.02 22.46-2.96L22.46-2.96 19.45-5.72Q19.45-5.72 19.97-6.34 20.49-6.97 21.29-8.03 22.1-9.1 23.09-10.56 24.08-12.01 25.01-13.78L25.01-13.78 22.62-15.6 25.06-18.88 26.78-17.58Q27.72-19.86 28.13-22.36L28.13-22.36 28.13-22.98 22.26-22.98 22.26-27.09 28.13-27.09 28.13-32.55 32.24-32.55 32.24-27.09 39.94-27.04 39.94-28.03 44.04-28.03 44.04-15.96Q44.04-13.31 44.62-11.57 45.19-9.83 45.81-8.79L45.81-8.79ZM101.61-1.46L101.61 2.65Q101.61 4.63 100.23 5.98 98.85 7.33 96.93 7.33L96.93 7.33 56.06 7.33 56.06-30.99 95.26-30.99 95.26-32.19 99.37-32.19 99.37-15.18Q99.37-13.26 97.99-11.88 96.62-10.5 94.69-10.5L94.69-10.5 60.11-10.5 60.11 3.28 96.93 3.28Q97.5 3.28 97.5 2.65L97.5 2.65 97.5-1.46 101.61-1.46ZM95.26-15.18L95.26-26.88 79.72-26.88 79.72-14.61 94.69-14.61Q95.26-14.61 95.26-15.18L95.26-15.18ZM75.66-26.88L60.11-26.88 60.11-14.61 75.66-14.61 75.66-26.88Z"
              transform="translate(-4.320000171661377, 32.54999923706055)"
            />
          </g>
        </g>
      </g>
      <g
        fill="#fff"
        transform="translate(28.850000381469727,45.04000473022461)"
      >
        <g>
          <g>
            <path
              xmlns="http://www.w3.org/2000/svg"
              fill="#fff"
              d="M5.85-4.32L2.57-4.32L2.57 0L1.20 0L1.20-10.01L5.85-10.01Q9.19-10.01 9.19-7.33L9.19-7.33Q9.19-5.69 7.77-4.92L7.77-4.92Q8.97-4.59 8.97-3.01L8.97-3.01L9.08-1.20Q9.02-0.44 9.57-0.22L9.57-0.22L9.57 0L7.88 0Q7.71-0.71 7.66-2.52L7.66-2.52Q7.71-4.32 5.85-4.32L5.85-4.32ZM5.96-8.91L2.57-8.91L2.57-5.47L5.74-5.47Q7.77-5.47 7.77-7.22L7.77-7.22Q7.77-8.91 5.96-8.91L5.96-8.91ZM13.63-1.20L19.65-1.20L19.65 0L12.27 0L12.27-10.01L19.54-10.01L19.54-8.86L13.63-8.86L13.63-5.74L19.10-5.74L19.10-4.54L13.63-4.54L13.63-1.20ZM26.17-8.91L23.77-8.91L23.77-5.80L26.17-5.80Q28.30-5.74 28.25-7.44L28.25-7.44Q28.25-8.91 26.17-8.91L26.17-8.91ZM26.72 0L22.40 0L22.40-10.01L26.83-10.01Q29.51-9.90 29.62-7.49L29.62-7.49Q29.62-6.02 28.30-5.41L28.30-5.41Q30.16-4.76 30.16-2.95L30.16-2.95Q30-0.11 26.72 0L26.72 0ZM26.39-4.65L23.77-4.65L23.77-1.15L26.66-1.15Q28.74-1.20 28.80-2.95L28.80-2.95Q28.80-4.65 26.39-4.65L26.39-4.65ZM39.31 0L38.33-2.90L34.28-2.90L33.24 0L31.88 0L35.65-10.01L37.18-10.01L40.79 0L39.31 0ZM36.30-8.53L34.72-4.10L37.84-4.10L36.36-8.53L36.30-8.53Z"
              transform="translate(-1.203125, 10.0078125)"
            />
          </g>
        </g>
      </g>
    </g>
  </g>
</svg>