<svg
  xmlns="http://www.w3.org/2000/svg"
  version="1.0"
  width="100%"
  height="100%"
  viewBox="0 0 340.000000 250.000000"
>
  <g
    fill="#fff"
    transform="translate(107.47000122070312,69.17093658447266)"
  >
    <polyline
      stroke="#fff"
      stroke-width="3"
      fill-opacity="0"
      fill="#fff"
      points="62.529998779296875,20 62.529998779296875,0 125.05999755859375,0 125.05999755859375,111.65812683105469 62.529998779296875,111.65812683105469 62.529998779296875,91.65812683105469"
    />
    <g transform="translate(0,20)">
      <g>
        <rect
          stroke-width="2"
          width="125.05999755859375"
          height="71.65812683105469"
          fill-opacity="0"
        />
      </g>
      <g transform="translate(10,3)">
        <g>
          <g>
            <g>
              <path
                d="M18.26-9.4Q17.67-10.21 18.42-10.8L18.42-10.8Q19.28-11.49 19.93-10.8L19.93-10.8 19.98-10.74Q22.67-7.36 23.85-3.33L23.85-3.33Q24.17-2.47 23.31-2.2L23.31-2.2 23.26-2.15 23.15-2.15Q22.88-2.04 22.67-2.04L22.67-2.04Q22.13-2.04 21.81-2.58L21.81-2.58Q21.81-2.63 21.7-2.74L21.7-2.74Q20.57-6.34 18.26-9.4L18.26-9.4ZM29.97-9.24Q29.22-9.78 29.81-10.63L29.81-10.63Q30.56-11.44 31.31-11.01L31.31-11.01 31.37-10.96Q35.34-7.63 37.6-3.6L37.6-3.6Q38.08-2.85 37.33-2.31L37.33-2.31 37.28-2.31 37.22-2.26Q36.85-2.04 36.52-2.04L36.52-2.04Q36.04-2.04 35.77-2.52L35.77-2.52 35.72-2.58Q33.57-6.28 29.97-9.24L29.97-9.24ZM41.79-9.29Q40.98-9.72 41.36-10.63L41.36-10.63Q41.89-11.6 42.75-11.28L42.75-11.28 42.81-11.28Q48.72-8.43 53.07-3.71L53.07-3.71Q53.66-2.95 53.07-2.31L53.07-2.31 53.01-2.26Q52.58-1.88 52.15-1.88L52.15-1.88Q51.78-1.88 51.4-2.26L51.4-2.26Q47.27-6.71 41.79-9.29L41.79-9.29ZM9.56-10.21L6.88-9.94Q6.07-9.83 5.85-10.74L5.85-10.74Q5.8-10.85 5.8-10.9L5.8-10.9Q5.64-11.92 6.5-12.14L6.5-12.14 6.66-12.14 16.87-13.27 16.87-20.25 6.02-20.25Q5.16-20.25 5-21.05L5-21.05 5-21.22Q5-22.24 5.8-22.4L5.8-22.4 6.02-22.45 16.87-22.45 16.87-26.1Q16.87-26.96 17.72-27.12L17.72-27.12 17.89-27.12Q18.85-27.12 19.01-26.32L19.01-26.32 19.07-26.26 19.07-22.45 32.76-22.45Q33.62-22.45 33.78-21.59L33.78-21.59 33.78-21.43Q33.78-20.46 32.98-20.3L32.98-20.3 32.92-20.25 19.07-20.25 19.07-13.48 32.82-15.25Q33.73-15.36 33.89-14.5L33.89-14.5Q33.95-14.39 33.95-14.34L33.95-14.34 33.95-13.96Q37.28-19.82 39.1-29.43L39.1-29.43Q37.97-31.1 36.79-32.33L36.79-32.33Q36.15-32.98 36.85-33.68L36.85-33.68 36.9-33.73Q37.65-34.43 38.4-33.84L38.4-33.84 38.46-33.78 39.53-32.44Q40.18-36.79 40.5-40.87L40.5-40.87 40.5-40.93 35.77-40.93Q34.91-40.93 34.75-41.73L34.75-41.73 34.75-41.89Q34.75-42.92 35.56-43.08L35.56-43.08 35.61-43.13 40.61-43.13Q40.87-47.75 40.87-51.94L40.87-51.94 40.87-51.99Q40.87-52.8 41.68-52.96L41.68-52.96 41.84-52.96Q42.86-52.96 43.02-52.21L43.02-52.21 43.08-52.15 43.08-51.99 42.86-43.13 44.74-43.13Q47.32-43.13 48.55-40.87L48.55-40.87Q49.09-39.91 49.09-38.78L49.09-38.78Q49.09-26.53 50.17-14.29L50.17-14.29Q50.76-13.21 50.92-14.39L50.92-14.39 52.05-22.13Q52.15-22.99 53.07-22.93L53.07-22.93 53.12-22.93Q54.14-22.77 54.19-22.02L54.19-22.02 54.19-21.81 53.12-14.07Q52.69-10.9 51.4-11.01L51.4-11.01Q48.5-11.01 47.96-14.29L47.96-14.29Q46.89-26.53 46.89-38.73L46.89-38.73Q46.89-40.28 45.49-40.77L45.49-40.77 44.74-40.93 42.7-40.93Q42.22-34.43 41.41-29.92L41.41-29.92Q43.83-26.48 45.49-21.97L45.49-21.97Q45.76-21 44.9-20.68L44.9-20.68 44.85-20.68Q43.88-20.36 43.45-21.05L43.45-21.05 43.45-21.11 43.4-21.22Q42.16-24.49 40.82-26.75L40.82-26.75Q38.89-17.72 35.4-12.19L35.4-12.19 35.4-12.14Q34.8-11.39 34.05-11.87L34.05-11.87Q33.3-12.41 33.52-13.16L33.52-13.16 33.52-13.21 33.09-13.05Q22.45-11.55 12.08-10.53L12.08-10.53Q12.3-9.88 11.92-9.56L11.92-9.56Q8.33-5.42 3.38-2.95L3.38-2.95Q2.58-2.63 2.15-3.33L2.15-3.33 2.15-3.38 2.09-3.49Q1.93-3.87 1.93-4.19L1.93-4.19Q1.93-4.67 2.42-4.94L2.42-4.94 2.47-4.94Q6.45-7.04 9.56-10.21L9.56-10.21ZM5.37-49.58L16.87-49.58 16.87-51.99Q16.87-52.8 17.72-52.96L17.72-52.96 17.89-52.96Q18.85-52.96 19.01-52.21L19.01-52.21 19.07-52.15 19.07-49.58 30.08-49.58Q30.88-49.58 31.1-48.72L31.1-48.72 31.1-48.55Q31.1-47.59 30.29-47.43L30.29-47.43 30.24-47.37 19.07-47.37 19.07-43.34 32.87-43.34Q33.73-43.34 33.89-42.54L33.89-42.54 33.89-42.32Q33.89-41.36 33.09-41.2L33.09-41.2 33.03-41.14 22.4-41.14 22.4-30.4Q22.4-29.33 23.47-29.33L23.47-29.33 30.62-29.33Q31.9-29.33 32.17-30.56L32.17-30.56 33.19-35.99Q33.41-36.85 34.21-36.79L34.21-36.79 34.38-36.79Q35.45-36.52 35.34-35.66L35.34-35.66 35.34-35.61 34.32-30.19Q33.73-27.12 30.62-27.12L30.62-27.12 23.47-27.12Q20.2-27.12 20.2-30.4L20.2-30.4 20.2-41.14 14.39-41.14 14.39-41.04Q14.07-30.99 6.71-27.77L6.71-27.77Q5.1-27.07 3.22-26.75L3.22-26.75 3.12-26.75Q2.26-26.64 2.09-27.45L2.09-27.45Q2.04-27.55 2.04-27.61L2.04-27.61 2.04-27.82Q2.04-28.68 2.74-28.9L2.74-28.9 2.9-28.9Q10.1-30.02 11.71-36.79L11.71-36.79Q12.14-38.67 12.19-41.04L12.19-41.04 12.19-41.14 3.01-41.14Q2.2-41.14 2.04-41.95L2.04-41.95 2.04-42.11Q2.04-43.13 2.79-43.29L2.79-43.29 3.01-43.34 16.87-43.34 16.87-47.37 5.53-47.37Q4.73-47.37 4.57-48.18L4.57-48.18 4.57-48.34Q4.57-49.41 5.37-49.58L5.37-49.58ZM83.57-48.07L83.57-32.76 97.27-32.76Q98.83-32.76 99.37-34.21L99.37-34.21 99.37-34.27 99.53-34.97 99.58-45.87Q99.58-47.43 98.18-47.91L98.18-47.91 97.43-48.07 83.57-48.07ZM81.43-32.76L81.43-48.07 68.16-48.07Q66.6-48.07 66.12-46.62L66.12-46.62 65.96-45.87 65.96-32.76 81.43-32.76ZM97.27-30.56L65.96-30.56 65.96-7.3Q65.96-6.23 67.03-6.23L67.03-6.23 102.32-6.23Q103.5-6.23 103.61-7.36L103.61-7.36 104.84-19.44Q104.84-20.25 105.6-20.41L105.6-20.41 105.86-20.41Q106.99-20.25 106.99-19.34L106.99-19.34 106.99-19.28 105.81-7.14Q105.49-4.03 102.32-4.03L102.32-4.03 67.03-4.03Q63.75-4.03 63.75-7.3L63.75-7.3 63.75-45.87Q63.75-48.34 65.9-49.68L65.9-49.68Q66.92-50.27 68.16-50.27L68.16-50.27 97.49-50.27Q100.01-50.27 101.25-48.02L101.25-48.02Q101.78-47.1 101.78-45.92L101.78-45.92 101.78-45.87 101.73-34.97Q101.67-32.44 99.47-31.21L99.47-31.21Q98.51-30.56 97.27-30.56L97.27-30.56Z"
                transform="translate(-1.9300000667572021, 52.959999084472656)"
              />
            </g>
          </g>
        </g>
        <g transform="translate(36.84999942779541,57.08000183105469)">
          <g>
            <g>
              <path
                d="M5.02-3.70L2.20-3.70L2.20 0L1.03 0L1.03-8.58L5.02-8.58Q7.88-8.58 7.88-6.28L7.88-6.28Q7.88-4.88 6.66-4.22L6.66-4.22Q7.69-3.94 7.69-2.58L7.69-2.58L7.78-1.03Q7.73-0.38 8.20-0.19L8.20-0.19L8.20 0L6.75 0Q6.61-0.61 6.56-2.16L6.56-2.16Q6.61-3.70 5.02-3.70L5.02-3.70ZM5.11-7.64L2.20-7.64L2.20-4.69L4.92-4.69Q6.66-4.69 6.66-6.19L6.66-6.19Q6.66-7.64 5.11-7.64L5.11-7.64ZM10.83-1.03L15.98-1.03L15.98 0L9.66 0L9.66-8.58L15.89-8.58L15.89-7.59L10.83-7.59L10.83-4.92L15.52-4.92L15.52-3.89L10.83-3.89L10.83-1.03ZM20.72-7.64L18.66-7.64L18.66-4.97L20.72-4.97Q22.55-4.92 22.50-6.38L22.50-6.38Q22.50-7.64 20.72-7.64L20.72-7.64ZM21.19 0L17.48 0L17.48-8.58L21.28-8.58Q23.58-8.48 23.67-6.42L23.67-6.42Q23.67-5.16 22.55-4.64L22.55-4.64Q24.14-4.08 24.14-2.53L24.14-2.53Q24-0.09 21.19 0L21.19 0ZM20.91-3.98L18.66-3.98L18.66-0.98L21.14-0.98Q22.92-1.03 22.97-2.53L22.97-2.53Q22.97-3.98 20.91-3.98L20.91-3.98ZM31.13 0L30.28-2.48L26.81-2.48L25.92 0L24.75 0L27.98-8.58L29.30-8.58L32.39 0L31.13 0ZM28.55-7.31L27.19-3.52L29.86-3.52L28.59-7.31L28.55-7.31Z"
                transform="translate(-1.03125, 8.578125)"
              />
            </g>
          </g>
        </g>
      </g>
    </g>
  </g>
</svg>