<svg
  version="1.0"
  xmlns="http://www.w3.org/2000/svg"
  width="100%"
  height="100%"
  viewBox="0 0 340.000000 250.000000"
>
  <g fill="#333" transform="translate(88.36781311035156,58.40698432922363)">
    <g>
      <g>
        <rect fill="#333" fill-opacity="0.5" x="0" y="30" width="123.12999725341797" height="68.34000778198242" transform="rotate(10) translate(34.17000389099121 -20.521666208902996)">
        </rect>
        <rect fill="#333" fill-opacity="1" x="10" y="20" width="123.12999725341797" height="68.34000778198242">
        </rect>
      </g>
      <g fill-opacity="0" transform="translate(10,20)">
        <g>
          <rect stroke-width="2" class="i-icon-bg" x="0" y="0" width="123.12999725341797" height="97.91813659667969">
          </rect>
        </g>
        <g transform="translate(10,10)">
          <g data-gra="path-name" class="tp-name" fill="#ffffff" fill-opacity="1">
            <g>
              <g>
                <path d="M11.82-43.83L11.82-43.83Q16.97-43.83 17.4-43.18L17.4-43.18Q17.4-43.18 17.19-42.97L17.19-42.97Q16.33-41.68 16.33-39.96L16.33-39.96 16.33-35.66Q20.2-35.66 22.56-36.09L22.56-36.09 22.56-31.37Q22.13-31.8 16.33-31.8L16.33-31.8 16.33-26Q18.05-26.21 22.34-28.14L22.34-28.14 22.13-23.63 16.33-22.13 16.33-13.32Q16.97-9.67 8.16-8.81L8.16-8.81Q7.95-11.6 6.02-14.39L6.02-14.39Q12.68-12.89 12.25-16.33L12.25-16.33 12.25-21.05Q7.52-19.77 4.73-18.69L4.73-18.69Q4.3-18.48 4.3-18.48L4.3-18.48 2.79-23.63Q2.79-23.63 3.22-23.63L3.22-23.63Q6.23-23.63 12.25-24.92L12.25-24.92 12.25-31.58 9.88-31.58Q5.16-31.58 3.22-31.15L3.22-31.15 3.22-35.88Q5.37-35.45 9.88-35.45L9.88-35.45 12.25-35.45 12.25-40.61Q12.25-42.97 11.82-43.83ZM31.58-43.83L31.58-43.83Q37.38-43.83 38.03-42.97L38.03-42.97Q38.03-42.97 37.81-42.54L37.81-42.54Q36.74-41.25 36.52-40.18L36.52-40.18Q36.52-39.75 36.52-38.89L36.52-38.89Q36.31-36.95 36.31-35.88L36.31-35.88Q41.46-36.09 45.55-36.95L45.55-36.95Q44.26-29.86 44.69-23.2L44.69-23.2Q45.33-15.25 47.05-14.39L47.05-14.39Q48.34-14.18 49.2-20.2L49.2-20.2Q51.35-17.62 53.07-16.97L53.07-16.97Q50.7-9.88 47.48-9.45L47.48-9.45Q39.32-11.6 40.82-32.44L40.82-32.44 35.88-32.23Q35.88-31.8 35.66-30.72L35.66-30.72Q35.02-24.71 33.95-21.91L33.95-21.91Q36.09-20.2 39.75-16.54L39.75-16.54 36.52-13.54Q35.23-15.47 32.23-18.05L32.23-18.05Q29.22-12.03 23.42-7.95L23.42-7.95Q22.34-9.67 19.12-10.74L19.12-10.74Q25.78-13.32 29.43-20.84L29.43-20.84Q29-21.27 26.43-22.77L26.43-22.77Q24.92-23.85 24.06-24.28L24.06-24.28 26.86-27.29 30.72-24.49Q31.15-25.57 31.58-30.94L31.58-30.94Q31.58-31.8 31.58-32.01L31.58-32.01Q25.78-32.01 24.28-31.37L24.28-31.37 24.28-36.09Q26.43-35.66 31.8-35.66L31.8-35.66Q32.01-41.89 31.58-43.83ZM40.39-5.8L45.12-7.52Q48.13-3.22 51.13 1.93L51.13 1.93 45.98 4.08Q44.04-1.5 40.39-5.8L40.39-5.8ZM8.16-6.66L8.16-6.66Q12.25-5.59 12.89-4.73L12.89-4.73Q12.89-4.51 12.68-4.08L12.68-4.08Q11.82-3.22 11.39-2.15L11.39-2.15Q10.1 0 8.16 3.87L8.16 3.87Q7.95 4.51 7.95 4.51L7.95 4.51Q7.3 4.08 5.16 3.22L5.16 3.22Q3.87 2.79 3.22 2.58L3.22 2.58Q6.66-1.07 8.16-6.66ZM29.43-5.59L33.95-6.02Q35.88-2.36 36.95 3.22L36.95 3.22 31.8 3.44Q31.8-0.43 29.43-5.59L29.43-5.59ZM17.62-5.37L22.13-5.8Q23.63-1.07 24.06 3.44L24.06 3.44 18.91 3.44Q18.69-1.93 17.62-5.37L17.62-5.37ZM62.09-41.04L62.09-41.04Q63.38-40.61 69.18-40.61L69.18-40.61 94.32-40.61Q98.83-40.61 100.55-40.82L100.55-40.82Q100.55-40.61 100.33-39.75L100.33-39.75Q99.9-35.88 99.9-34.8L99.9-34.8 99.9-21.91Q99.9-16.54 100.33-15.47L100.33-15.47 95.18-15.47Q95.61-16.76 95.61-19.34L95.61-19.34 66.82-19.34 66.82-5.16Q66.17-1.29 71.11-1.72L71.11-1.72 94.96-1.72Q99.47-0.43 100.55-9.88L100.55-9.88Q102.91-7.73 105.92-6.45L105.92-6.45Q103.77 3.65 96.68 2.15L96.68 2.15 68.75 2.15Q61.45 2.79 62.3-3.65L62.3-3.65 62.3-34.59Q62.3-36.52 62.09-41.04ZM79.06-36.74L66.82-36.74 66.82-23.42 79.06-23.42 79.06-36.74ZM95.39-36.74L83.36-36.74 83.36-23.42 95.39-23.42 95.39-36.74Z"
                transform="translate(-2.7899999618530273, 43.83000183105469)">
                </path>
              </g>
            </g>
          </g>
          <g data-gra="path-slogan" class="tp-slogan" fill="#333" fill-opacity="1" transform="translate(35.88499927520752,69.34000778198242)">
            <g>
              <g>
                <path d="M5.02-3.70L2.20-3.70L2.20 0L1.03 0L1.03-8.58L5.02-8.58Q7.88-8.58 7.88-6.28L7.88-6.28Q7.88-4.88 6.66-4.22L6.66-4.22Q7.69-3.94 7.69-2.58L7.69-2.58L7.78-1.03Q7.73-0.38 8.20-0.19L8.20-0.19L8.20 0L6.75 0Q6.61-0.61 6.56-2.16L6.56-2.16Q6.61-3.70 5.02-3.70L5.02-3.70ZM5.11-7.64L2.20-7.64L2.20-4.69L4.92-4.69Q6.66-4.69 6.66-6.19L6.66-6.19Q6.66-7.64 5.11-7.64L5.11-7.64ZM10.83-1.03L15.98-1.03L15.98 0L9.66 0L9.66-8.58L15.89-8.58L15.89-7.59L10.83-7.59L10.83-4.92L15.52-4.92L15.52-3.89L10.83-3.89L10.83-1.03ZM20.72-7.64L18.66-7.64L18.66-4.97L20.72-4.97Q22.55-4.92 22.50-6.38L22.50-6.38Q22.50-7.64 20.72-7.64L20.72-7.64ZM21.19 0L17.48 0L17.48-8.58L21.28-8.58Q23.58-8.48 23.67-6.42L23.67-6.42Q23.67-5.16 22.55-4.64L22.55-4.64Q24.14-4.08 24.14-2.53L24.14-2.53Q24-0.09 21.19 0L21.19 0ZM20.91-3.98L18.66-3.98L18.66-0.98L21.14-0.98Q22.92-1.03 22.97-2.53L22.97-2.53Q22.97-3.98 20.91-3.98L20.91-3.98ZM31.13 0L30.28-2.48L26.81-2.48L25.92 0L24.75 0L27.98-8.58L29.30-8.58L32.39 0L31.13 0ZM28.55-7.31L27.19-3.52L29.86-3.52L28.59-7.31L28.55-7.31Z" transform="translate(-1.03125, 8.578125)">
                </path>
              </g>
            </g>
          </g>
        </g>
      </g>
    </g>
  </g>
</svg>
