<?xml version="1.0" standalone="no"?><!DOCTYPE svg PUBLIC "-//W3C//DTD SVG 1.1//EN" "http://www.w3.org/Graphics/SVG/1.1/DTD/svg11.dtd"><svg t="1762397708629" class="icon" viewBox="0 0 1024 1024" version="1.1" xmlns="http://www.w3.org/2000/svg" p-id="1561" xmlns:xlink="http://www.w3.org/1999/xlink" width="200" height="200"><path d="M837.9 341.1L614.4 117.7c-9.5-9.5-22.3-14.7-35.7-14.7H304.4c-73.5 0-133.2 59.6-133.2 133.2v551.4c0 35.3 14 69.2 39 94.2s58.8 39 94.2 39h415.2c35.3 0 69.2-14 94.2-39s39-58.8 39-94.2V376.9c-0.2-13.4-5.5-26.2-14.9-35.8z m-386 184.8l-120 69.4 120 70.6v39.8l-158.2-95.6v-29.6l158.2-95.6v41zM497.7 716h-29.4l58.9-243.6h29.4L497.7 716zM730 610.1l-157.1 95.6v-39.8l118.9-70.6-118.9-69.4v-41L730 580.5v29.6z" fill="#B7BDCD" p-id="1562"></path><path d="M837.6 340.1L614.2 116.7c-7.1-7-16.1-11.7-25.9-13.5-1.4-0.2-2.9 0.2-4 1.1-1.1 1-1.7 2.3-1.7 3.8v108c0 41.3 16.5 81 45.7 110.2 29.3 29.2 69 45.5 110.3 45.4h108c1.5 0 2.9-0.6 3.8-1.7 1-1.1 1.4-2.6 1.3-4-2-9.8-6.9-18.8-14.1-25.9z" fill="#9A9FAD" p-id="1563"></path><path d="M743.7 346.9h99.5c-1.6-2.4-3.5-4.7-5.5-6.7L614.2 116.7c-2.1-2.1-4.3-3.9-6.7-5.5v99.5c0 75.2 60.9 136.2 136.2 136.2z" fill="#C9CDE1" p-id="1564"></path></svg>