<?xml version="1.0" standalone="no"?><!DOCTYPE svg PUBLIC "-//W3C//DTD SVG 1.1//EN" "http://www.w3.org/Graphics/SVG/1.1/DTD/svg11.dtd"><svg t="1762397684144" class="icon" viewBox="0 0 1024 1024" version="1.1" xmlns="http://www.w3.org/2000/svg" p-id="1250" xmlns:xlink="http://www.w3.org/1999/xlink" width="200" height="200"><path d="M837.9 341.1L614.4 117.7c-9.5-9.5-22.3-14.7-35.7-14.7H304.4c-73.5 0-133.2 59.6-133.2 133.2v551.4c0 35.3 14 69.2 39 94.2s58.8 39 94.2 39h415.2c35.3 0 69.2-14 94.2-39s39-58.8 39-94.2V376.9c-0.2-13.4-5.5-26.2-14.9-35.8zM468.6 715.7H363.5c-19.4 0-35.1-15.7-35.1-35 0-19.4 15.7-35 35.1-35h105.1c18.8 0.7 33.7 16.2 33.7 35s-14.9 34.3-33.7 35z m206.6-192.2c-6.6 11-18.6 17.6-31.5 17.1H363.5c-19.4 0-35.1-15.7-35.1-35s15.7-35 35.1-35h280.2c12.8-0.5 24.9 6.1 31.5 17.1 6.6 11 6.6 24.7 0 35.8z" fill="#9B42F8" p-id="1251"></path><path d="M837.6 340.1L614.2 116.7c-7.1-7-16.1-11.7-25.9-13.5-1.4-0.2-2.9 0.2-4 1.1-1.1 1-1.7 2.3-1.7 3.8v108c0 41.3 16.5 81 45.7 110.2 29.3 29.2 69 45.5 110.3 45.4h108c1.5 0 2.9-0.6 3.8-1.7 1-1.1 1.4-2.6 1.3-4-2-9.8-6.9-18.8-14.1-25.9z" fill="#862CE7" p-id="1252"></path><path d="M743.7 346.9h99.5c-1.6-2.4-3.5-4.7-5.5-6.7L614.2 116.7c-2.1-2.1-4.3-3.9-6.7-5.5v99.5c0 75.2 60.9 136.2 136.2 136.2z" fill="#D2B0F7" p-id="1253"></path></svg>