<?xml version="1.0" standalone="no"?><!DOCTYPE svg PUBLIC "-//W3C//DTD SVG 1.1//EN" "http://www.w3.org/Graphics/SVG/1.1/DTD/svg11.dtd"><svg t="1762397700469" class="icon" viewBox="0 0 1024 1024" version="1.1" xmlns="http://www.w3.org/2000/svg" p-id="1406" xmlns:xlink="http://www.w3.org/1999/xlink" width="200" height="200"><path d="M810.8 256.2H503.4L466 162.8c-6-15-20.5-24.8-36.6-24.8H219.7c-65.3 0-118.2 52.9-118.2 118.2V532c0 5.2 2.1 10.2 5.8 13.9 3.7 3.7 8.7 5.8 13.9 5.8h788.1c5.2 0 10.2-2.1 13.9-5.8s5.8-8.7 5.8-13.9V374.4c0-65.3-52.9-118.2-118.2-118.2z m22.2 164c0 30.2-24.7 54.8-54.8 54.8H247.8c-30.2 0-54.8-24.7-54.8-54.8v-32.3c0-30.2 24.7-54.8 54.8-54.8h530.3c30.2 0 54.8 24.7 54.8 54.8v32.3h0.1z" fill="#FEC833" p-id="1407"></path><path d="M180.3 410.4h669.9c20.9 0 40.9 8.3 55.7 23.1 14.8 14.8 23.1 34.8 23.1 55.7V765c0 65.3-52.9 118.2-118.2 118.2H219.7c-65.3 0-118.2-52.9-118.2-118.2V489.2c0-43.5 35.3-78.8 78.8-78.8z" fill="#FAB007" p-id="1408"></path></svg>