<?xml version="1.0" standalone="no"?><!DOCTYPE svg PUBLIC "-//W3C//DTD SVG 1.1//EN" "http://www.w3.org/Graphics/SVG/1.1/DTD/svg11.dtd"><svg t="1762397734971" class="icon" viewBox="0 0 1024 1024" version="1.1" xmlns="http://www.w3.org/2000/svg" p-id="1877" xmlns:xlink="http://www.w3.org/1999/xlink" width="200" height="200"><path d="M171.4 749.4v39.8c0 34.8 14 68.1 39 92.7 25 24.6 58.8 38.4 94.1 38.4h415c35.3 0 69.2-13.8 94.1-38.4 25-24.6 39-57.9 39-92.7v-39.3l-681.2-0.5z" fill="#9A9FAD" p-id="1878"></path><path d="M852.8 760V377c-0.1-13.4-5.5-26.2-14.9-35.7L614.4 117.8c-9.5-9.5-22.3-14.7-35.7-14.7H304.4c-73.5 0-133.2 59.6-133.2 133.2V760" fill="#B7BDCD" p-id="1879"></path><path d="M326.9 577.4l47.9-12.7c0.6 30.6 12 45.6 34.2 44.9 21.5 0.7 32.2-15.6 32.2-48.8v-129H490v130.9c0.6 59.3-25.4 88.5-78.1 87.9-48.2 0.6-76.5-23.8-85-73.2zM514.4 579.3l47.9-9.8c3.9 30 20.2 44.9 48.8 44.9 21.5-0.6 32.9-9.4 34.2-26.4 0.6-11.7-6.8-20.8-22.5-27.3-16.3-5.9-30.6-9.8-43-11.7-39.7-8.5-58.9-29.3-57.6-62.5 3.9-35.8 30.3-55 79.1-57.6 51.4-1.3 81.4 18.9 89.8 60.5l-47.9 8.8c-3.3-20.8-16.6-31.3-40-31.3-18.9 0.7-29 7.5-30.3 20.5-1.3 11.7 11.4 20.5 38.1 26.4 20.8 4.6 37.8 10.4 50.8 17.6 22.8 13 34.5 31.3 35.2 54.7-2 41.7-30.3 63.1-85 64.5-54.6 0.6-87.2-23.1-97.6-71.3z" fill="#FFFFFF" p-id="1880"></path><path d="M468.4 857.3l6.2-1.4c0.1 8.3 3.3 12.3 9.4 12 6.2 0.1 9.3-4 9.2-12.2v-39.6h6.3v39.2c0.4 12.6-4.9 18.7-15.8 18.4-9.4 0.2-14.5-5.3-15.3-16.4zM508.7 856.2l6.5-2c1.5 9.6 7.2 14.2 17.3 13.9 9.2-0.2 14.1-3.7 14.5-10.6 0.9-5.3-4.3-9.1-15.7-11.3-14.3-2.8-21-8-20.3-15.8 0.7-9.7 7.4-14.7 19.8-15.2 12.2 0 19.3 5.1 21.4 15.3l-6.8 2c-1.9-7.8-6.7-11.7-14.3-11.7-8.7 0.2-13.3 3.4-13.6 9.6-0.1 4.6 4.7 7.9 14.4 9.8 15.2 2.9 22.5 8.8 21.8 17.6-0.9 10.2-7.9 15.5-20.9 16-13.5 0.1-21.5-5.7-24.1-17.6z" fill="#FFFFFF" p-id="1881"></path><path d="M836.1 340.3L612.7 116.8c-7.1-7-16.1-11.7-25.9-13.5-1.4-0.2-2.9 0.2-4 1.1-1.1 1-1.7 2.3-1.7 3.8v108c0 41.3 16.5 81 45.7 110.2 29.3 29.2 69 45.5 110.3 45.4h108c1.5 0 2.9-0.6 3.8-1.7 1-1.1 1.4-2.6 1.3-4-2-9.8-6.9-18.8-14.1-25.8z" fill="#9A9FAD" p-id="1882"></path><path d="M742.2 347h99.5c-1.6-2.4-3.5-4.7-5.5-6.7L612.7 116.8c-2.1-2.1-4.3-3.9-6.7-5.5v99.5C606 286 667 347 742.2 347z" fill="#CACFE2" p-id="1883"></path></svg>