<?xml version="1.0" standalone="no"?><!DOCTYPE svg PUBLIC "-//W3C//DTD SVG 1.1//EN" "http://www.w3.org/Graphics/SVG/1.1/DTD/svg11.dtd"><svg t="1762397714242" class="icon" viewBox="0 0 1024 1024" version="1.1" xmlns="http://www.w3.org/2000/svg" p-id="1719" xmlns:xlink="http://www.w3.org/1999/xlink" width="200" height="200"><path d="M837.9 341.1L614.4 117.7c-9.5-9.5-22.3-14.7-35.7-14.7H304.4c-73.5 0-133.2 59.6-133.2 133.2v551.4c0 35.3 14 69.2 39 94.2s58.8 39 94.2 39h415.2c35.3 0 69.2-14 94.2-39s39-58.8 39-94.2V376.9c-0.2-13.4-5.5-26.2-14.9-35.8zM636.2 533.9h-5.9c-1.5-5.2-3.4-8.8-5.8-10.8-2.4-2.1-5.9-3.1-10.6-3.1h-72v177.5c0 4.5 1 8 3.1 10.3 2 2.4 5.7 4.4 10.9 6v6.1h-86.4v-6.1c5.1-1.3 8.7-3.2 10.8-5.7 2.1-2.5 3.2-6 3.2-10.5V519.9h-72c-4.7 0-8.2 1-10.6 3.1-2.4 2.1-4.3 5.7-5.8 10.8h-5.9v-72.2h5.9c1.3 5.1 3.2 8.7 5.6 10.8 2.4 2.1 5.9 3.2 10.6 3.2H614c4.7 0 8.2-1 10.6-3.1 2.4-2 4.3-5.7 5.8-10.9h5.9v72.3z" fill="#A4A4A5" p-id="1720"></path><path d="M837.6 340.1L614.2 116.7c-7.1-7-16.1-11.7-25.9-13.5-1.4-0.2-2.9 0.2-4 1.1-1.1 1-1.7 2.3-1.7 3.8v108c0 41.3 16.5 81 45.7 110.2 29.3 29.2 69 45.5 110.3 45.4h108c1.5 0 2.9-0.6 3.8-1.7 1-1.1 1.4-2.6 1.3-4-2-9.8-6.9-18.8-14.1-25.9z m0 0" fill="#66686B" p-id="1721"></path><path d="M743.7 346.9h99.5c-1.6-2.4-3.5-4.7-5.5-6.7L614.2 116.7c-2.1-2.1-4.3-3.9-6.7-5.5v99.5c0 75.2 60.9 136.2 136.2 136.2z m0 0" fill="#E1E6E9" p-id="1722"></path></svg>